# Blender 4.1.1
# www.blender.org
mtllib pig.mtl
o Cube
v 1.000000 2.895132 -2.146610
v 1.000000 0.895132 -2.146610
v 1.000000 2.895132 2.146610
v 1.000000 0.895132 2.146610
v -1.000000 2.895132 -2.146610
v -1.000000 0.895132 -2.146610
v -1.000000 2.895132 2.146610
v -1.000000 0.895132 2.146610
vn -0.0000 1.0000 -0.0000
vn -0.0000 -0.0000 1.0000
vn -1.0000 -0.0000 -0.0000
vn -0.0000 -1.0000 -0.0000
vn 1.0000 -0.0000 -0.0000
vn -0.0000 -0.0000 -1.0000
vt 0.316761 0.836554
vt 0.170229 0.836554
vt 0.170229 0.690022
vt 0.316761 0.690022
vt 0.316761 0.543490
vt 0.170229 0.543490
vt 0.023697 0.690022
vt 0.023697 0.836554
vt 0.170229 0.396958
vt 0.316761 0.396958
vt 0.463293 0.836554
vt 0.463293 0.690022
vt 0.170229 0.983086
vt 0.316761 0.983086
s 0
usemtl Material
f 1/1/1 5/2/1 7/3/1 3/4/1
f 4/5/2 3/4/2 7/3/2 8/6/2
f 8/7/3 7/3/3 5/2/3 6/8/3
f 6/9/4 2/10/4 4/5/4 8/6/4
f 2/11/5 1/1/5 3/4/5 4/12/5
f 6/13/6 5/2/6 1/1/6 2/14/6
o Cube.001
v -1.108304 1.690363 -1.484195
v -1.108304 3.870905 -1.085964
v -1.108304 2.088595 -3.664737
v -1.108304 4.269137 -3.266506
v 1.108304 1.690363 -1.484195
v 1.108304 3.870905 -1.085964
v 1.108304 2.088595 -3.664737
v 1.108304 4.269137 -3.266506
vn -1.0000 -0.0000 -0.0000
vn -0.0000 0.1797 -0.9837
vn 1.0000 -0.0000 -0.0000
vn -0.0000 -0.1797 0.9837
vn -0.0000 -0.9837 -0.1797
vn -0.0000 0.9837 0.1797
vt 0.213495 0.348877
vt 0.116594 0.348228
vt 0.117243 0.251326
vt 0.214144 0.251975
vt 0.117891 0.154425
vt 0.214793 0.155074
vt 0.118540 0.057523
vt 0.215442 0.058172
vt 0.311694 0.155723
vt 0.408596 0.156372
vt 0.407947 0.253273
vt 0.311045 0.252624
vt 0.020341 0.250677
vt 0.020990 0.153776
s 0
usemtl Material.001
f 9/15/7 10/16/7 12/17/7 11/18/7
f 11/18/8 12/17/8 16/19/8 15/20/8
f 15/20/9 16/19/9 14/21/9 13/22/9
f 13/23/10 14/24/10 10/25/10 9/26/10
f 11/18/11 15/20/11 13/23/11 9/26/11
f 16/19/12 12/17/12 10/27/12 14/28/12
o Cube.002
v -1.786600 -0.691218 -1.986113
v -1.439373 1.207291 -1.461614
v -1.742085 -0.447825 -2.896580
v -1.394858 1.450683 -2.372080
v -0.858506 -0.860961 -1.986113
v -0.511279 1.037547 -1.461614
v -0.813991 -0.617568 -2.896580
v -0.466764 1.280940 -2.372080
v 1.786600 -0.691218 -1.986113
v 1.439373 1.207291 -1.461614
v 1.742085 -0.447825 -2.896580
v 1.394858 1.450683 -2.372080
v 0.858506 -0.860961 -1.986113
v 0.511279 1.037547 -1.461614
v 0.813991 -0.617568 -2.896580
v 0.466764 1.280940 -2.372080
v -1.786600 -0.691218 1.986113
v -1.439373 1.207291 1.461614
v -1.742085 -0.447825 2.896580
v -1.394858 1.450683 2.372080
v -0.858506 -0.860961 1.986113
v -0.511279 1.037547 1.461614
v -0.813991 -0.617568 2.896580
v -0.466764 1.280940 2.372080
v 1.786600 -0.691218 1.986113
v 1.439373 1.207291 1.461614
v 1.742085 -0.447825 2.896580
v 1.394858 1.450683 2.372080
v 0.858506 -0.860961 1.986113
v 0.511279 1.037547 1.461614
v 0.813991 -0.617568 2.896580
v 0.466764 1.280940 2.372080
vn -0.9837 0.1799 -0.0000
vn 0.0472 0.2580 -0.9650
vn 0.9837 -0.1799 -0.0000
vn -0.0472 -0.2580 0.9650
vn -0.1736 -0.9493 -0.2622
vn 0.1736 0.9493 0.2622
vn 0.9837 0.1799 -0.0000
vn -0.0472 0.2580 -0.9650
vn -0.9837 -0.1799 -0.0000
vn 0.0472 -0.2580 0.9650
vn 0.1736 -0.9493 -0.2622
vn -0.1736 0.9493 0.2622
vn 0.0472 0.2580 0.9650
vn -0.0472 -0.2580 -0.9650
vn -0.1736 -0.9493 0.2622
vn 0.1736 0.9493 -0.2622
vn -0.0472 0.2580 0.9650
vn 0.0472 -0.2580 -0.9650
vn 0.1736 -0.9493 0.2622
vn -0.1736 0.9493 -0.2622
vt 0.444766 0.273513
vt 0.441817 0.139664
vt 0.575666 0.136714
vt 0.578615 0.270563
vt 0.709515 0.133765
vt 0.712464 0.267614
vt 0.843364 0.130815
vt 0.846313 0.264664
vt 0.977213 0.127866
vt 0.980163 0.261715
vt 0.715414 0.401463
vt 0.849263 0.398513
vt 0.706565 -0.000084
vt 0.840414 -0.003034
s 0
usemtl Material.002
f 17/29/13 18/30/13 20/31/13 19/32/13
f 19/32/14 20/31/14 24/33/14 23/34/14
f 23/34/15 24/33/15 22/35/15 21/36/15
f 21/36/16 22/35/16 18/37/16 17/38/16
f 19/39/17 23/34/17 21/36/17 17/40/17
f 24/33/18 20/41/18 18/42/18 22/35/18
f 25/29/19 27/32/19 28/31/19 26/30/19
f 27/32/20 31/34/20 32/33/20 28/31/20
f 31/34/21 29/36/21 30/35/21 32/33/21
f 29/36/22 25/38/22 26/37/22 30/35/22
f 27/39/23 25/40/23 29/36/23 31/34/23
f 32/33/24 30/35/24 26/42/24 28/41/24
f 33/29/13 35/32/13 36/31/13 34/30/13
f 35/32/25 39/34/25 40/33/25 36/31/25
f 39/34/15 37/36/15 38/35/15 40/33/15
f 37/36/26 33/38/26 34/37/26 38/35/26
f 35/39/27 33/40/27 37/36/27 39/34/27
f 40/33/28 38/35/28 34/42/28 36/41/28
f 41/29/19 42/30/19 44/31/19 43/32/19
f 43/32/29 44/31/29 48/33/29 47/34/29
f 47/34/21 48/33/21 46/35/21 45/36/21
f 45/36/30 46/35/30 42/37/30 41/38/30
f 43/39/31 47/34/31 45/36/31 41/40/31
f 48/33/32 44/41/32 42/42/32 46/35/32
o Cube.003
v -0.196818 3.390852 3.743347
v -0.196818 2.544766 1.931127
v -0.196818 3.034175 3.909871
v -0.196818 2.188089 2.097652
v 0.196818 3.390852 3.743347
v 0.196818 2.544766 1.931127
v 0.196818 3.034175 3.909871
v 0.196818 2.188089 2.097652
vn -1.0000 -0.0000 -0.0000
vn -0.0000 -0.9061 0.4230
vn 1.0000 -0.0000 -0.0000
vn -0.0000 0.9061 -0.4230
vn -0.0000 0.4230 0.9061
vn -0.0000 -0.4230 -0.9061
vt 0.682983 0.709681
vt 0.545129 0.711170
vt 0.543640 0.573316
vt 0.681494 0.571827
vt 0.680006 0.433973
vt 0.817860 0.432485
vt 0.819348 0.570339
vt 0.957202 0.568850
vt 0.958691 0.706704
vt 0.820837 0.708193
vt 0.822325 0.846047
vt 0.684471 0.847535
vt 0.823814 0.983901
vt 0.685960 0.985389
s 0
usemtl Material.003
f 49/43/33 50/44/33 52/45/33 51/46/33
f 51/46/34 52/47/34 56/48/34 55/49/34
f 55/49/35 56/50/35 54/51/35 53/52/35
f 53/52/36 54/53/36 50/54/36 49/43/36
f 51/46/37 55/49/37 53/52/37 49/43/37
f 56/55/38 52/56/38 50/54/38 54/53/38
